HIERARCHY
ROOT Hips
{
    OFFSET 0.000000 0.000000 0.000000
    CHANNELS 6 Xposition Yposition Zposition Zrotation Xrotation Yrotation
    JOINT Spine
    {
        OFFSET -0.000000 7.883683 0.000000
        CHANNELS 3 Zrotation Xrotation Yrotation
        JOINT Spine1
        {
            OFFSET -0.000000 24.776327 0.000000
            CHANNELS 3 Zrotation Xrotation Yrotation
            JOINT Neck
            {
                OFFSET -0.000000 24.674574 2.243143
                CHANNELS 3 Zrotation Xrotation Yrotation
                JOINT Head
                {
                    OFFSET -0.000000 13.459947 -1.922849
                    CHANNELS 3 Zrotation Xrotation Yrotation
                    End Site
                    {
                        OFFSET -0.000000 24.035618 0.000000
                    }
                }
            }
            JOINT LeftShoulder
            {
                OFFSET 3.810223 22.323311 -0.325006
                CHANNELS 3 Zrotation Xrotation Yrotation
                JOINT LeftArm
                {
                    OFFSET 12.560579 0.000000 0.000000
                    CHANNELS 3 Zrotation Xrotation Yrotation
                    JOINT LeftForeArm
                    {
                        OFFSET 28.806782 0.000000 0.000000
                        CHANNELS 3 Zrotation Xrotation Yrotation
                        JOINT LeftHand
                        {
                            OFFSET 23.813900 0.000000 0.000000
                            CHANNELS 3 Zrotation Xrotation Yrotation
                            End Site
                            {
                                OFFSET 14.421371 0.000000 0.000000
                            }
                        }
                    }
                }
            }
            JOINT RightShoulder
            {
                OFFSET -3.823061 22.323311 -0.325006
                CHANNELS 3 Zrotation Xrotation Yrotation
                JOINT RightArm
                {
                    OFFSET -12.560579 0.000000 0.000000
                    CHANNELS 3 Zrotation Xrotation Yrotation
                    JOINT RightForeArm
                    {
                        OFFSET -28.806782 0.000000 0.000000
                        CHANNELS 3 Zrotation Xrotation Yrotation
                        JOINT RightHand
                        {
                            OFFSET -23.813900 0.000000 0.000000
                            CHANNELS 3 Zrotation Xrotation Yrotation
                            End Site
                            {
                                OFFSET -14.421371 0.000000 0.000000
                            }
                        }
                    }
                }
            }
        }
    }
    JOINT LeftUpLeg
    {
        OFFSET 9.614247 0.000000 0.000000
        CHANNELS 3 Zrotation Xrotation Yrotation
        JOINT LeftLeg
        {
            OFFSET -0.000000 -41.464203 0.000000
            CHANNELS 3 Zrotation Xrotation Yrotation
            JOINT LeftFoot
            {
                OFFSET -0.000000 -34.276012 0.000000
                CHANNELS 3 Zrotation Xrotation Yrotation
                JOINT LeftToeBase
                {
                    OFFSET -0.000000 -6.249260 14.421371
                    CHANNELS 3 Zrotation Xrotation Yrotation
                    End Site
                    {
                        OFFSET -0.000000 0.000000 3.845699
                    }
                }
            }
        }
    }
    JOINT RightUpLeg
    {
        OFFSET -9.614247 0.000000 0.000000
        CHANNELS 3 Zrotation Xrotation Yrotation
        JOINT RightLeg
        {
            OFFSET -0.000000 -41.464203 0.000000
            CHANNELS 3 Zrotation Xrotation Yrotation
            JOINT RightFoot
            {
                OFFSET -0.000000 -34.276012 0.000000
                CHANNELS 3 Zrotation Xrotation Yrotation
                JOINT RightToeBase
                {
                    OFFSET -0.000000 -6.249260 14.421371
                    CHANNELS 3 Zrotation Xrotation Yrotation
                    End Site
                    {
                        OFFSET -0.000000 0.000000 3.845699
                    }
                }
            }
        }
    }
}
MOTION
Frames:    7
Frame Time:    0.004000
-19.199932    79.925194    -185.271378    1.792931    -1.925759    4.702103    -1.272711    0.732069    -0.249610    -0.814259    -12.211014    -0.344851    4.022563    20.767202    -5.150569    0.894172    7.520492    -5.119641    14.726460    0.851363    5.183994    -19.231287    2.903908    -4.750756    5.335107    5.023667    -5.275251    -4.548691    5.276233    -0.192088    -14.437534    -0.955804    11.359851    13.899980    -0.111108    2.329508    -0.636829    1.733363    -0.299522    -0.271544    1.727833    1.640490    -1.416102    8.724033    1.283910    -9.577743    -7.289845    4.216376    7.782883    -1.873061    9.916857    0.000000    0.000000    0.000000    -1.961647    8.719022    5.579241    6.483508    -7.988393    2.582062    -3.361546    -3.167595    -4.629836    0.000000    0.000000    0.000000    
-19.202583    79.923218    -185.260986    1.791938    -1.912282    4.687491    -1.271209    0.714852    -0.241122    -0.824072    -12.224376    -0.337399    4.041543    20.750185    -5.149676    0.903762    7.535440    -5.117944    14.732269    0.849041    5.189106    -19.243898    2.923018    -4.737422    5.336032    5.028446    -5.291459    -4.549947    5.280895    -0.169159    -14.429169    -0.958624    11.362603    13.901429    -0.100013    2.317618    -0.635313    1.749564    -0.289329    -0.253609    1.744388    1.633108    -1.416255    8.728280    1.290332    -9.580489    -7.304497    4.218124    7.775831    -1.886476    9.930105    0.000000    0.000000    0.000000    -1.971850    8.729220    5.559391    6.501463    -8.027294    2.590608    -3.339980    -3.149242    -4.598913    0.000000    0.000000    0.000000    
-19.203112    79.921356    -185.257385    1.793858    -1.904394    4.683952    -1.270154    0.710601    -0.239206    -0.835549    -12.238475    -0.336821    4.055607    20.756304    -5.150932    0.912839    7.523345    -5.117631    14.732414    0.859164    5.190260    -19.249411    2.901530    -4.736910    5.354968    5.029568    -5.287410    -4.657505    5.284405    -0.207148    -14.416224    -0.963801    11.361524    13.898190    -0.086583    2.315347    -0.636430    1.753832    -0.286623    -0.264261    1.748478    1.631520    -1.420425    8.728008    1.285290    -9.575967    -7.320724    4.232727    7.780172    -1.881024    9.918564    0.000000    0.000000    0.000000    -1.976683    8.730129    5.543487    6.510948    -8.044848    2.579526    -3.343101    -3.143126    -4.566216    0.000000    0.000000    0.000000    
-19.204308    79.920219    -185.253021    1.793203    -1.891282    4.676390    -1.272309    0.694940    -0.235778    -0.831768    -12.242125    -0.332903    4.044100    20.737930    -5.148428    0.933134    7.546204    -5.114861    14.719624    0.856761    5.196849    -19.243507    2.920892    -4.731000    5.352046    5.027741    -5.295090    -4.641481    5.282413    -0.197880    -14.428996    -0.959189    11.362812    13.912712    -0.086771    2.313902    -0.635898    1.771048    -0.283557    -0.259673    1.765827    1.624847    -1.423409    8.723724    1.303392    -9.575098    -7.329206    4.225870    7.798213    -1.873421    9.912709    0.000000    0.000000    0.000000    -1.979754    8.726302    5.518860    6.516337    -8.055473    2.568419    -3.334351    -3.145176    -4.518528    0.000000    0.000000    0.000000    
-19.206684    79.918915    -185.248520    1.792402    -1.887007    4.668376    -1.270020    0.688579    -0.232014    -0.843124    -12.245329    -0.330393    4.063432    20.739986    -5.150504    0.932205    7.527033    -5.116014    14.732339    0.851941    5.195985    -19.267014    2.890072    -4.718955    5.365204    5.043734    -5.301939    -4.656921    5.298684    -0.181547    -14.415753    -0.971723    11.358932    13.911396    -0.062673    2.312994    -0.631439    1.783444    -0.284026    -0.268808    1.778081    1.624688    -1.422456    8.726364    1.292499    -9.571006    -7.339958    4.231761    7.776825    -1.879090    9.929313    0.000000    0.000000    0.000000    -1.984930    8.733284    5.519345    6.525865    -8.070424    2.588680    -3.325741    -3.145454    -4.520423    0.000000    0.000000    0.000000    
-19.207264    79.917992    -185.245590    1.793098    -1.877779    4.659254    -1.271640    0.685718    -0.227503    -0.841081    -12.264384    -0.325565    4.043801    20.729147    -5.144125    0.971945    7.547821    -5.107750    14.722377    0.852111    5.205394    -19.272882    2.885745    -4.726349    5.360487    5.053703    -5.291184    -4.591749    5.307701    -0.178391    -14.429219    -0.958777    11.363442    13.924746    -0.089548    2.305641    -0.635664    1.798411    -0.273049    -0.232305    1.793609    1.628667    -1.426308    8.724958    1.292098    -9.571137    -7.348011    4.265904    7.766720    -1.885082    9.909496    0.000000    0.000000    0.000000    -1.990702    8.729231    5.493917    6.535201    -8.078904    2.587599    -3.298166    -3.132468    -4.487669    0.000000    0.000000    0.000000    
-19.207842    79.915276    -185.239990    1.793406    -1.879335    4.656557    -1.271952    0.686213    -0.227911    -0.842887    -12.269238    -0.326289    4.053618    20.729403    -5.141527    0.969128    7.535048    -5.104728    14.713084    0.856301    5.212071    -19.269461    2.888853    -4.720872    5.356149    5.058238    -5.292397    -4.578817    5.312048    -0.177773    -14.428765    -0.971635    11.366343    13.932642    -0.065001    2.300111    -0.637517    1.806456    -0.267195    -0.248394    1.801466    1.612021    -1.426081    8.736531    1.287929    -9.570669    -7.362081    4.276900    7.791296    -1.888581    9.900377    0.000000    0.000000    0.000000    -1.994173    8.744112    5.476647    6.538879    -8.089745    2.631163    -3.302755    -3.150424    -4.494353    0.000000    0.000000    0.000000    
